/* XPM */
static char *d1b4b7a79d164ccbc73eb81575cf7213SzvvLdQ01UQ9FeRr[] = {
/* columns rows colors chars-per-pixel */
"64 64 241 2 ",
"   c None",
".  c #0C0506",
"X  c #060303",
"o  c #160809",
"O  c #1A0A0A",
"+  c #130607",
"@  c #1E1D1D",
"#  c #190F10",
"$  c #280C0C",
"%  c #241B18",
"&  c #3A1311",
"*  c #300F0D",
"=  c #29221D",
"-  c #252322",
";  c #2D2925",
":  c #2D2B29",
">  c #2A2623",
",  c #322E2A",
"<  c #332B26",
"1  c #35312D",
"2  c #3B332C",
"3  c #3B3226",
"4  c #3C3732",
"5  c #3E3A35",
"6  c #363330",
"7  c #461412",
"8  c #5D1C17",
"9  c #562815",
"0  c #6F2B1C",
"q  c #433C35",
"w  c #453C39",
"e  c #4A372C",
"r  c #711E19",
"t  c #49423A",
"y  c #5A4635",
"u  c #704E31",
"i  c #6A4B19",
"p  c #2C3544",
"a  c #3B4550",
"s  c #3A5978",
"d  c #36516A",
"f  c #554A45",
"g  c #4A4E55",
"h  c #6C5A4C",
"j  c #6F6659",
"k  c #47596A",
"l  c #445F78",
"z  c #595863",
"x  c #4A6279",
"c  c #566879",
"v  c #5A656F",
"b  c #736C68",
"n  c #7A7869",
"m  c #646B76",
"M  c #66747B",
"N  c #797775",
"B  c #6D6D68",
"V  c #9B3426",
"C  c #8B271E",
"Z  c #875611",
"A  c #A87313",
"S  c #875329",
"D  c #8E6C32",
"F  c #A6702F",
"G  c #A8572C",
"H  c #C35A3A",
"J  c #8D5B46",
"K  c #877A58",
"L  c #8B6C4D",
"P  c #827B76",
"I  c #91786A",
"U  c #AB755B",
"Y  c #C75742",
"T  c #BA891B",
"R  c #9E8237",
"E  c #B68922",
"W  c #B38F35",
"Q  c #CE961C",
"!  c #E39C1C",
"~  c #CA9A29",
"^  c #C89B39",
"/  c #D19727",
"(  c #D6A82A",
")  c #DEB12B",
"_  c #CBA336",
"`  c #D8AA38",
"'  c #DEB33C",
"]  c #D9B239",
"[  c #CDA228",
"{  c #E9B82B",
"}  c #E2B534",
"|  c #E5BA34",
" . c #E1B53C",
".. c #E5BA3B",
"X. c #E9BE39",
"o. c #E7A52D",
"O. c #D6A81F",
"+. c #F4C22E",
"@. c #ECC23C",
"#. c #EDC236",
"$. c #F4C83C",
"%. c #978957",
"&. c #B79746",
"*. c #AA8C50",
"=. c #BBA352",
"-. c #85837D",
";. c #978C70",
":. c #AC966E",
">. c #B5A375",
",. c #C9954E",
"<. c #CBA746",
"1. c #D8AD46",
"2. c #DEB342",
"3. c #DCB549",
"4. c #D8AE55",
"5. c #DCB559",
"6. c #CBAA55",
"7. c #E4B743",
"8. c #EBB353",
"9. c #C39363",
"0. c #CAA966",
"q. c #DBB667",
"w. c #CBB67B",
"e. c #D9B776",
"r. c #CAAF6F",
"t. c #E1BC6C",
"y. c #EDC447",
"u. c #F5CB44",
"i. c #F5CD4C",
"p. c #F3C946",
"a. c #F9D24A",
"s. c #F8D049",
"d. c #ECC556",
"f. c #F3CC53",
"g. c #F4CC5C",
"h. c #F9D45C",
"j. c #F8D357",
"k. c #DBC270",
"l. c #EBC867",
"z. c #F2CD69",
"x. c #FCDC65",
"c. c #F9D66A",
"v. c #FCDC6C",
"b. c #F7D366",
"n. c #E7C877",
"m. c #FBDC73",
"M. c #FBDD7B",
"N. c #F6D576",
"B. c #F2CE77",
"V. c #FEE07A",
"C. c #3E6488",
"Z. c #476888",
"A. c #546C84",
"S. c #5A738A",
"D. c #4A6F91",
"F. c #466D91",
"G. c #4C7295",
"H. c #4E7498",
"J. c #547492",
"K. c #517799",
"L. c #55799B",
"P. c #5B7C9C",
"I. c #5C7994",
"U. c #667789",
"Y. c #627C94",
"T. c #617E9A",
"R. c #787E85",
"E. c #5A7EA0",
"W. c #64829D",
"Q. c #6A839A",
"!. c #778591",
"~. c #5D82A3",
"^. c #6384A4",
"/. c #6A87A2",
"(. c #6B89A5",
"). c #6C8CAA",
"_. c #6689A9",
"`. c #728DA7",
"'. c #7591AD",
"]. c #7B93AB",
"[. c #6C8FB0",
"{. c #7796B4",
"}. c #6F92B1",
"|. c #5D809E",
" X c #898985",
".X c #95928B",
"XX c #979996",
"oX c #8B8F90",
"OX c #A49D99",
"+X c #AA9587",
"@X c #9DA095",
"#X c #A8A59B",
"$X c #B8AE8F",
"%X c #839CB5",
"&X c #8293A5",
"*X c #9DA2A1",
"=X c #ABA9A5",
"-X c #A8AAA8",
";X c #B8AFA9",
":X c #B4B3AE",
">X c #B8B4A9",
",X c #BCBAB5",
"<X c #B8B9B5",
"1X c #ADB1B0",
"2X c #C9B587",
"3X c #D7BA88",
"4X c #CBB291",
"5X c #C6BDA5",
"6X c #C4BAB6",
"7X c #BEC1BD",
"8X c #D9C599",
"9X c #D3C490",
"0X c #E8C988",
"qX c #EAD289",
"wX c #FBDD82",
"eX c #F5D485",
"rX c #E7CA99",
"tX c #F0D496",
"yX c #C7C3BC",
"uX c #D9D1BE",
"iX c #D1C5A9",
"pX c #EAD5AC",
"aX c #F5E0A0",
"sX c #BBC3C2",
"dX c #C8C9C6",
"fX c #D4D2CD",
"gX c #DBD4C6",
"hX c #D9D8D6",
"jX c #CED0CD",
"kX c #E1DDDA",
"lX c #E8DDC6",
"zX c #E3E1DD",
"xX c #EEE6D1",
"cX c #E6E4E2",
"vX c #EAE9E5",
"bX c #EEECEA",
"nX c #E8E6E3",
"mX c #F0EFED",
"MX c #F1F0EE",
"NX c #F5F4F2",
"BX c #F9F9F8",
/* pixels */
"        5 5                                                                                                                     ",
"        4 1                                                                                                                     ",
"  5     t , f                                                                                                                   ",
"t 4 :   t 1 5                                                                                                                   ",
"w q 1 : 4 1 6   t 5 t                                                                                                           ",
"  5 2 5 t 1 < 2 t < <                           < e 2 2 2                                                                       ",
"  4 2 f t 2 < = ; = =                                 %.h e q                                                                   ",
"    6 t t ; = % % =                     2XtXtXeXeXB.eXeXeXe.:.L                                                                 ",
"    6 4 t < = =                     3XtXtXtXN.b.b.h.h.h.h.b.b.n.qX3Xh                                                           ",
"      5 t 3 = 4                   pXpXlXgXuXuX8Xz.j.j.a.a.j.j.h.z.l.q.:.y 2                                                     ",
"      5 t 2 < e               pXlXnXcXhXdXdXdXjXyX9Xf.a.a.a.a.s.a.f.g.n.e.K e 2                                                 ",
"      5 t t < 3             aXxXMXhX*XR.N N  X*XdXyX9Xf.a.a.a.s.s.i.i.i.l.0X2X  2                                               ",
"      t D R F u             xXNXyXN B P .XOX.X X.X7XyX9Xy.s.s.s.s.s.s.u.i.l.0X3X                                                ",
"        v.h.{             uXBXfXN N OXyXkXcXzXfX=X@X7X>X5.p.u.u.$.s.s.u.u.y.l.n.3X                                              ",
"        m.x.{           P hXNXXXb #XkXbXbXmXMXbXzX>X:XyXw.| @.y.l.0Xn.k.l.y.d.l.0X                                              ",
"        m.v.{         f P NXhXN ,XkXvXmXNXNXMXMXvXhX<X7X>Xr.9XgXgXfXdXdXyX8Xk.d.n.0X                                            ",
"        m.v.{       h f :XBX,X.XNXMXMXBXBXBXBXMXbXcXhXdX6XfXhXdX=XXXoXXX=X7XyX3Xt.B.3X                                          ",
"        m.v.{ /     f j kXBX:X#XBXmXBXbX;X+XyXmXmXnXbXhXsXdX-XN B b N N N .X:X,X2Xn.rX                                          ",
"        m.v.{ /     L >.fXNX:X#XNXmXnXI h u J 6XmXnXbXhX<XXXb N XX;XyXyX:X.XoX:X;X3X0X4X                                        ",
"        v.c.{ /     n.N.rXNXdX-.uXnXyXJ J w 0 I cXnXmXjX-XM P ,XhXvXbXbXnXfXOXOX:X4XrXrX                                        ",
"        m.v.{ !     wXm.m.xXcX;.>.tX4XH h e J U zXnXvXsXoXP 6XkXbXMXMXMXbXvXfXOX1X;XrXrX                                        ",
"        c.m.X.!   wXV.m.x.uXbX1X:.n.qX0X9.U U 6XcXkXjX:X X6XmXvXnXMXNXNXmXbXkXdX:X=X8XrX                                        ",
"        v.m.{ !   wXm.v.x.qXhXhX$X4.B.N.B.0.;XkXkXjX7X=X XcXnX+XI +XkXNXMXbXnXkXjX=X5XrXrX                                      ",
"        v.v.+.! qXN.v.x.x.N.iXjXdX5Xe.t.z.t.rXgXdX1X:X=X XvXOXJ J J ;.bXMXbXcXkXkXXX4XrXpX                                      ",
"        m.v.+.o.eXm.x.x.v.V.B.9XdX7X7X7X9XiX7X:X*X*XdX7X XfXI L w e J hXNXbXzXzXhXoX#X8XrX                                      ",
"        v.v.+.8.wXv.x.x.v.V.wXB.2XiX>X:X1X-X*X*X#X.XjXjX.X1XI G e S J lXMXvXkXvXdX-.oXiXrX                                      ",
"        m.v.X.z.M.v.x.x.v.V.wXwXz.5.r.2X$X$X+X;.D i ;.cX=X:.w.>.9.U +XMXbXcXhXzX=X XXX$XrX                                      ",
"        c.v.$.B.v.x.x.v.m.V.wXwXwXc.3._ W E F Z Z Z h jX7X+X0.n.eXB.tXlXkXkXdX6X XXXXXP 8X                                      ",
"        m.v.h.M.v.x.x.m.V.V.V.wXwXwXN.d.] [ Q A T A A >.dX:X$Xq.n.B.B.l.0X5X6X.XoX X!.z P                                       ",
"        c.m.eXM.x.x.v.m.x.m.M.V.wXwXwXN.b.d.7.) O.Q Q W $X7X1X$Xw.k.k.e.2X#XoXOX-.R.B g z                                       ",
"        c.n.qXv.v.x.v.v.V.V.V.V.wXwXV.V.m.b.g.d.y.] | ( _ $X7X1X=X#X#X*XXXXX-X#XK  Xg z z                 ; ; q                 ",
"        N.w.eXv.x.x.v.v.x.x.V.M.wXwXwXwXN.m.b.h.f.y.@.#.) _ =.$X:X1X-X*X=X;X:.,.<.9.u f m                 > ; q                 ",
"          w.v.x.x.v.m.h.<.6.z.m.M.wXwXwXM.N.c.h.j.i.p.@.#.) O.W &.:.:.:.%.&.~ ^ 4.q.r.f                   < 1 4 f       t 1 5   ",
"         Xr.v.x.x.v.v.W h OXiX0Xb.m.V.wXN.c.c.h.j.i.i.p.#.#.} O.T T E E E ~ ~ ` 4.t.4Xj                   3 2 1 ; 1 6 5 6 : 6   ",
"        -.5.x.x.v.V.b.S 2 P hXcXuXqXz.c.c.c.b.j.j.s.u.p.$.@...| { ( [ ~ ~ / _ 1.5.e.rX                      ; , > - - ; ; >     ",
"        n d.x.x.x.V.g.9 $ $ e P #XvXlX8Xt.d.f.f.i.u.p.y.#.#.X...) ) ) ` ` _ 1.1.5.3X                      1 < , : ; ; , >       ",
"        j s.x.x.x.V.g.9 $ $ O O % z OX=XOXgX5Xe.0.6.1.1._ ( ` ( } X.| o.` ` 1.1.q.3X                  q 2 , ; 1 6 , , 5         ",
"      &Xn f.x.x.v.V.b.i $ $ O O + + O O >  XdXfX,X7X>X>XOX+X;.K F @.X.X.} ` 1.5.3XrX                  q , , , : : , - - , 1 :   ",
"      &XD i.x.x.v.v.V.i O O O O O + + + . . % q 5  X:X<X=X<X1X Xh 3.i.7.' ` 1.5.3X                  p.D , : ; @ @ @ @ @ : , : 5 ",
"      ].K $.x.x.v.V.V.&.$ o o O O O O O . X . . X + % < e b -.b h l.i.X.' ` 8.e.8X              p.g.g.<.e @ @ @ @ - - - : : - 6 ",
"      &XK ' h.x.x.V.V.z.i X + o o O O + X X . + X . O $ $ $ * & R h.u.' ` ` 4.3X            p.i.g.f.y.) y @ -                   ",
"      `.Y.+Xk.h.x.v.V.V.<.& & & & $ O . X . . . . + * & & & 7 S j.s.#.] &.%.I 4X        $.i.g.g.p...` <.  :                     ",
"      g v Q.!.>.k.x.V.V.V.<.0 r C 0 8 $ X X . . o O & 7 7 8 F f.u.#.=.K v A.U.N     u.a.h.b.f.y.7.1.                            ",
"      a v |.Q.`.oX@X9XqXwXV.d.F V V V C 0 0 8 8 & & 7 8 S ^ f.p.<.;.S.F.Z.A.m M   u.b.c.h.y. .1.                                ",
"      M k W.W.W.|.I.Q.oX*X8XqXN.8.,.F H Y Y Y Y G G F W u.a.3.%.M F.Z.Z.c j D <.j.c.b.i.X.7.1.                                  ",
"      Q.J.W.(.(.~.|.I.L.I.T.!.XX4Xn.z.d.8.8.8.8.y.s.i.$.3.%.M Z.F.F.x %.F Z [ b.c.a.@. .1.                                      ",
"    !.W.(.(.}.(.).).~.~.L.H.K.G.A.U.!.>.w.k.f.i.$.#.] %.M J.D.D.x n &._ ( ( y.f.y...1.                                          ",
"    Q./.W.W.(.`.^.^._._.L.L.E.D.F.C.s Z.c M -.:.=.:.M Z.G.D.Z.M %.` ] 1. .X.@...' 1.                                            ",
"    Q.Q.(././.`.`./.|.L.K.G.K.L.H.C.C.C.C.s l c x G.F.F.F.c %.^ ] ' 2.7...} ' 1.                                                ",
"    Q./././.T.^.^./.Q.T.P.I.L.L.|.|.|.C.C.C.M a 6 s L.S.n W [ ]  .2.7.2.' ] 4.                                                  ",
"    Q././.~.W.)._.l g k c ^.^./.~.C.H.~.C.C.|.d 6 d n R ~ ) ' ..7.2.2.` ` 4.                                                    ",
"    W././.^.^.).c a T.Y.a I._.^.|.C.H.C.C.C.|.c k j T ( ] @.@...7.2.2.1.q.                                                      ",
"    Q.(.Q./.`.Q.c Q.c Y.a x _.L.C.~.C.H.H.H.C.l s R ( @.@.@...' ' 2.3.5.3X                                                      ",
"  R./.(./.W./.T.c S.a x d x E.G.C.~.~.C.C.G.C.C.B [ #.@.@.' @.2.3.3.5.e.rX                                                      ",
"  U.].'./.T./.Y.g I.c S.k P.T.G.|.C.|.C.G.C.C.G.%.( #.@.@.2.2.' 2.8.5.n.rX                                                      ",
"  Y.`.`.(././.^.g I.Y.a l E.I.L.~.C.|.|.H.C.C.M E #.@.#.@.' ..' 3.5.t.0X                                                        ",
"  &X].'.(./././.S.k g x ~.J.K.~.~.~.~.~.C.C.l K ( | #.X... . .2.3.5.t.0X                                                        ",
"  &X{.'.`.(.^.^./.I.I.P.L.L.~.^.~.~.~.~.~.C.c R ) X.X.X.} } ' ' 2.5.q.rX                                                        ",
"    '.'.`.).(._.~.|.~.|.L.~.~.~.~.~.~.L.H.Z.B T } | | { } ' 2.2.3.5.e.w.                                                        ",
"    ].'.).`.)._._.~.~.L.|.^.~._.[.~.~.~.H.c j %.&.&._ _ _ ~ _ ~ <.,.:.b                                                         ",
"    %X{.].'.)._._.^.^.~.~.~._._.~.~.~.E.J.k s F.Z.A.M B b N P n P P M v                                                         ",
"    %X%X{.].{.).)._._.~.^._._._.[.~.~.~.Y.s G.K.H.G.S.x d l Z.A.A.c c A.                                                        ",
"      %X{.{.'.'.`.)._.).[.}.}.}.}.}.}.).S.l H.K.K.L.S.x d C.A.Z.c A.A.                                                          ",
"      %X%X{.'.].(./.).[.}.}.{.}.{.{.{./.Y.C.F.F.K.J.A.Z.C.Z.Z.Z.x S.Q.                                                          "
};
